# xmcd
#
# Track frame offsets:
#	150
#	17752
#	33144
#	48148
#	62194
#	77282
#	93208
#	110533
#	125329
#	139591
#	155282
#	173457
#	189451
#	207308
#	220381
#	237356
#	255196
#	267280
#	283823
#	302450
#
# Disc length: 4258 seconds
#
# Revision: 0
# Processed by: cddbd v1.4PL0 Copyright (c) Steve Scherf et al.
# Submitted via: dBpowerAMP V4.0
#
DISCID=0010a014
DTITLE=Paul Overstreet - Forever And Ever Amen
DYEAR=2002
DGENRE=Country
TTITLE0=Forever And Ever Amen (2000)
TTITLE1=Seein' My Father In Me (1989)
TTITLE2=I Won't Take Less Than Your Love (2000)
TTITLE3=Long Line Of Love (2000)
TTITLE4=Love Helps Those (Who Cannot Help Themselves (1989)
TTITLE5=All The Fun (1989)
TTITLE6=Sowin' Love (1989)
TTITLE7=Dig Another Well (2001)
TTITLE8=Richest Man On Earth (1989)
TTITLE9=Homemaker (1989)
TTITLE10=Heroes (1990)
TTITLE11=Daddy's Come Around (To Mama's Way Of Thinkin') (1990)
TTITLE12=When You Say Nothing At All (2000)
TTITLE13=Ball And Chain (1990)
TTITLE14=Billy Can't Read (1990)
TTITLE15=What's Goin' Without Saying (1992)
TTITLE16=Til' The Mountains Disappear (1990)
TTITLE17=One In A Million (1996)
TTITLE18=The Day My Daddy Didn't Come Home (2002)
TTITLE19=God Is Good (2001)
EXTD=
EXTT0=
EXTT1=
EXTT2=
EXTT3=
EXTT4=
EXTT5=
EXTT6=
EXTT7=
EXTT8=
EXTT9=
EXTT10=
EXTT11=
EXTT12=
EXTT13=
EXTT14=
EXTT15=
EXTT16=
EXTT17=
EXTT18=
EXTT19=
PLAYORDER=
